<?xml version="1.0" encoding="utf-8"?>
<!-- Generator: Adobe Illustrator 15.0.0, SVG Export Plug-In . SVG Version: 6.00 Build 0)  -->
<!DOCTYPE svg PUBLIC "-//W3C//DTD SVG 1.1//EN" "http://www.w3.org/Graphics/SVG/1.1/DTD/svg11.dtd">
<svg version="1.1" id="Layer_1" xmlns="http://www.w3.org/2000/svg" xmlns:xlink="http://www.w3.org/1999/xlink" x="0px" y="0px"
	 width="512px" height="512px" viewBox="0 0 512 512" enable-background="new 0 0 512 512" xml:space="preserve">
<path fill="none" d="M172.381,161.855c-21.958,21.693-34.051,50.51-34.051,81.144s12.093,59.451,34.051,81.146
	c8.702,8.597,18.544,15.662,29.185,21.075c15.006,6.75,31.438,10.312,48.434,10.312c31.228,0,60.569-11.998,82.618-33.781
	c21.958-21.693,34.051-50.512,34.051-81.145c0-30.634-12.093-59.451-34.05-81.145c-8.703-8.598-18.545-15.664-29.187-21.077
	c-15.006-6.749-31.438-10.31-48.433-10.31C223.772,128.074,194.431,140.071,172.381,161.855z M333.339,244.756l-113.098,69.343
	v-5.459l-5,3.065V173.017l5,3.066v-0.672L333.339,244.756z"/>
<polygon opacity="0.49" points="220.241,176.083 328.339,242.361 220.241,308.64 220.241,314.099 333.339,244.756 220.241,175.411 
	"/>
<path opacity="0.49" d="M172.381,324.145c-21.958-21.694-34.051-50.512-34.051-81.146s12.093-59.45,34.051-81.144
	c22.05-21.785,51.391-33.781,82.619-33.781c16.995,0,33.427,3.561,48.433,10.31c-16.321-8.301-34.529-12.704-53.433-12.704
	c-31.228,0-60.569,11.997-82.619,33.781c-21.958,21.693-34.051,50.51-34.051,81.144c0,30.633,12.093,59.451,34.051,81.145
	c10.05,9.929,21.618,17.816,34.185,23.47C190.925,339.807,181.083,332.741,172.381,324.145z"/>
<path opacity="0.49" d="M315.723,113.122c46.926,23.66,79.06,71.863,79.06,127.483c0,78.998-64.82,143.039-144.782,143.039
	c-21.679,0-42.241-4.716-60.704-13.153c19.719,9.939,42.048,15.547,65.704,15.547c79.962,0,144.782-64.041,144.782-143.039
	C399.782,185.426,365.349,135.807,315.723,113.122z"/>
<path opacity="0.49" fill="#FFFFFF" d="M366.669,240.605c0,30.633-12.093,59.451-34.051,81.145
	c-22.049,21.783-51.391,33.781-82.618,33.781c-16.995,0-33.428-3.562-48.434-10.312c16.322,8.302,34.53,12.705,53.434,12.705
	c31.228,0,60.569-11.997,82.618-33.78c21.958-21.694,34.051-50.512,34.051-81.146s-12.093-59.45-34.05-81.144
	c-10.051-9.93-21.619-17.818-34.187-23.471c10.642,5.413,20.483,12.479,29.187,21.077
	C354.576,181.154,366.669,209.972,366.669,240.605z"/>
<path opacity="0.49" fill="#FFFFFF" d="M110.218,242.999c0-78.998,64.821-143.038,144.782-143.038
	c21.687,0,42.254,4.719,60.723,13.161c-19.724-9.944-42.06-15.555-65.723-15.555c-79.961,0-144.782,64.04-144.782,143.038
	c0,57.578,34.442,107.204,84.078,129.886C142.36,346.834,110.218,298.625,110.218,242.999z"/>
<polygon opacity="0.49" fill="#FFFFFF" points="215.241,173.017 215.241,311.705 220.241,308.64 220.241,176.083 "/>
<path opacity="0.49" fill="#FFFFFF" d="M394.782,240.605c0-55.62-32.134-103.824-79.06-127.483
	C297.254,104.68,276.687,99.961,255,99.961c-79.961,0-144.782,64.04-144.782,143.038c0,55.626,32.142,103.835,79.078,127.492
	c18.463,8.438,39.025,13.153,60.704,13.153C329.962,383.645,394.782,319.604,394.782,240.605z M133.331,240.605
	c0-30.634,12.093-59.451,34.051-81.144c22.05-21.785,51.391-33.781,82.619-33.781c18.903,0,37.111,4.403,53.433,12.704
	c12.567,5.653,24.136,13.542,34.187,23.471c21.957,21.694,34.05,50.51,34.05,81.144s-12.093,59.451-34.051,81.146
	c-22.049,21.783-51.391,33.78-82.618,33.78c-18.903,0-37.112-4.403-53.434-12.705c-12.567-5.653-24.135-13.541-34.185-23.47
	C145.423,300.057,133.331,271.238,133.331,240.605z"/>
<polygon opacity="0.49" fill="#FFFFFF" points="220.241,176.083 220.241,308.64 328.339,242.361 "/>
</svg>
